<?xml version="1.0" encoding="UTF-8"?>
<svg version="1.1" xmlns="http://www.w3.org/2000/svg" width="1024" height="1024">
<path d="M0 0 C337.92 0 675.84 0 1024 0 C1024 337.92 1024 675.84 1024 1024 C686.08 1024 348.16 1024 0 1024 C0 686.08 0 348.16 0 0 Z " fill="#2571B1" transform="translate(0,0)"/>
<path d="M0 0 C337.92 0 675.84 0 1024 0 C1024 337.92 1024 675.84 1024 1024 C686.08 1024 348.16 1024 0 1024 C0 686.08 0 348.16 0 0 Z M119.0625 33.125 C118.22895996 33.4243042 117.39541992 33.7236084 116.53662109 34.03198242 C83.07888318 46.4730266 55.95554023 71.54307343 40.81640625 103.84765625 C30.64429859 126.57991804 29.54166953 149.22752984 29.6207987 173.85172329 C29.62941581 177.58847142 29.62038249 181.32518775 29.61373454 185.06193423 C29.60449347 191.59225831 29.60625043 198.12250515 29.61546707 204.65282822 C29.6291348 214.36382204 29.62547922 224.07475718 29.61850847 233.78575537 C29.60661216 251.13368129 29.61164437 268.48157074 29.62378674 285.82949463 C29.63433847 301.00879717 29.63886025 316.18808731 29.63749123 331.36739349 C29.6374072 332.37572985 29.63732317 333.38406622 29.63723659 334.42295822 C29.63688432 338.51646361 29.6365003 342.60996899 29.63607101 346.70347437 C29.6321097 385.06993232 29.64480679 423.43636835 29.66559757 461.80282002 C29.68397138 495.86920325 29.68977806 529.93556548 29.68432617 564.00195312 C29.68397974 566.19003984 29.68363364 568.37812656 29.68328788 570.56621328 C29.68311689 571.64797701 29.68294589 572.72974075 29.68276971 573.8442852 C29.68191613 579.29005635 29.68109235 584.73582751 29.68030071 590.18159866 C29.68014363 591.25603235 29.67998655 592.33046603 29.67982471 593.43745832 C29.67583287 621.92961779 29.68131252 650.42177526 29.689812 678.91393352 C29.69071902 681.98036592 29.69162467 685.04679832 29.69252724 688.11323072 C29.69312834 690.14729324 29.69373696 692.18135576 29.69435314 694.21541828 C29.69857046 708.38150599 29.69915448 722.54758972 29.69724765 736.71367786 C29.69480261 754.9685241 29.69889351 773.22334907 29.71445765 791.4781895 C29.72249466 801.1263726 29.7251192 810.7745203 29.7198153 820.42270551 C29.71683043 826.87363193 29.72116527 833.32452714 29.73136387 839.77544611 C29.73697016 843.44646208 29.73952705 847.11740604 29.73319729 850.7884225 C29.53649345 876.15776536 29.53649345 876.15776536 34.1875 901 C34.40108154 901.74217773 34.61466309 902.48435547 34.8347168 903.24902344 C40.12800999 920.90959613 48.78097626 937.18892105 61 951 C61.83273438 951.97710938 62.66546875 952.95421875 63.5234375 953.9609375 C80.16203122 973.1486194 102.62291736 986.30265047 127 993 C128.0907381 993.32413244 129.1814762 993.64826488 130.30526698 993.98221952 C145.1795801 998.07961586 160.711235 997.28969523 175.99975027 997.26313647 C179.70029163 997.25893394 183.40081367 997.26638623 187.10135019 997.27228898 C193.5759949 997.28102174 200.05060798 997.28237354 206.52525711 997.27878571 C216.15382271 997.27346435 225.78235785 997.27958843 235.41092014 997.28786864 C253.61111312 997.30309047 271.81129217 997.30481554 290.01149018 997.30234561 C304.0694027 997.30051119 318.12731067 997.3022757 332.18522263 997.30657005 C334.20670344 997.30717246 336.22818426 997.30777366 338.24966507 997.30837366 C341.29606204 997.30928094 344.34245901 997.3101896 347.38885598 997.31110601 C375.70508727 997.31953297 404.02131684 997.32387305 432.33754921 997.31969929 C433.40452021 997.31954291 434.47149121 997.31938654 435.57079467 997.31922542 C440.97830674 997.31841967 446.3858188 997.3175739 451.79333086 997.31671212 C453.40417798 997.31645549 453.40417798 997.31645549 455.04756746 997.31619367 C457.21924964 997.31584701 459.39093181 997.31549848 461.56261399 997.31514808 C495.34627773 997.30979211 529.12991535 997.31771885 562.91357422 997.33618164 C600.89383191 997.3569137 638.87407343 997.36762199 676.8543371 997.36360615 C680.90685232 997.36321083 684.95936755 997.36284928 689.01188278 997.36250877 C690.00967034 997.36241804 691.0074579 997.36232731 692.03548145 997.36223383 C707.07576098 997.36106951 722.11602415 997.36770356 737.15629959 997.37832069 C754.26957749 997.39038907 771.38281942 997.39191286 788.49609788 997.37953053 C798.06323968 997.37291737 807.63029538 997.37449724 817.19743024 997.38811904 C823.60089289 997.39639749 830.00429141 997.39362217 836.40774891 997.38214377 C840.04767226 997.37592077 843.68742831 997.37419883 847.32734163 997.38600711 C886.15742385 997.50309974 918.72754971 990.61884066 949 965 C949.82371094 964.31164062 950.64742187 963.62328125 951.49609375 962.9140625 C975.33112312 942.31405272 991.46838059 910.94602977 993.79021201 879.55742769 C994.11395039 874.06771462 994.14005799 868.59304512 994.13142776 863.0951786 C994.1334804 861.8579333 994.13553303 860.62068801 994.13764787 859.34595042 C994.14230151 855.93642495 994.14255252 852.52695264 994.14087028 849.11742801 C994.14013397 845.39852156 994.14517423 841.67962197 994.1494453 837.96071851 C994.15699641 830.59580765 994.15921688 823.23090405 994.15977435 815.86598972 C994.16069085 807.03949238 994.16736683 798.21300169 994.17412117 789.38650722 C994.19015372 768.05783893 994.19608123 746.72917137 994.20086992 725.40049813 C994.20320852 715.30437441 994.20681144 705.20825125 994.2105653 695.11212798 C994.22339807 660.52999672 994.23411772 625.94786578 994.2375679 591.36573219 C994.23778953 589.19635998 994.23801132 587.02698777 994.23823325 584.85761555 C994.23845389 582.68310922 994.23867437 580.50860288 994.2388947 578.33409655 C994.23933724 573.97191723 994.23978436 569.60973791 994.24023438 565.24755859 C994.24034377 564.16599809 994.24045316 563.08443759 994.24056586 561.97010253 C994.24419568 526.9084203 994.26011431 491.84675875 994.28342474 456.78508444 C994.30804371 419.68715929 994.32174169 382.58924595 994.32293582 345.49131238 C994.32310726 341.41570051 994.32332269 337.34008864 994.32357025 333.26447678 C994.3236539 331.7592593 994.3236539 331.7592593 994.32373925 330.22363339 C994.32488784 314.1046444 994.33589345 297.98567671 994.35045731 281.8666949 C994.36485311 265.65287312 994.3680419 249.43907853 994.36001733 233.22525211 C994.35557571 223.60521604 994.35936266 213.985268 994.37525584 204.36524358 C994.38505963 197.92390346 994.38377651 191.48262451 994.37381961 185.04128485 C994.36846623 181.38132958 994.36759045 177.72154242 994.38032833 174.06160159 C994.45097478 152.36597349 994.45505646 130.33187207 986 110 C985.58838623 109.00009033 985.58838623 109.00009033 985.16845703 107.97998047 C971.07217669 74.32501376 944.19555403 49.7092025 910.8125 35.75 C909.21500998 35.14862316 907.61042551 34.56582518 906 34 C905.05511719 33.66355469 904.11023438 33.32710937 903.13671875 32.98046875 C884.73474519 26.86175525 866.61148001 26.55772134 847.3928091 26.61459734 C843.65644323 26.62228603 839.92011368 26.61239697 836.18375313 26.60486734 C829.65100594 26.59408503 823.11833326 26.59432827 816.58558273 26.60200882 C806.87094743 26.61339905 797.1563745 26.60753297 787.44173956 26.5983839 C770.08773614 26.58261751 752.73376594 26.58394345 735.3797594 26.59262064 C720.19395638 26.60017616 705.00816551 26.60213327 689.82236099 26.5985527 C688.81388715 26.59832355 687.80541331 26.59809439 686.76637966 26.59785829 C682.67237164 26.59692424 678.57836362 26.59596903 674.48435561 26.594979 C636.10501042 26.58580863 597.72568635 26.59411212 559.34634442 26.61026969 C525.26685502 26.62450794 491.18739926 26.62323004 457.10791016 26.60888672 C418.79440391 26.59281518 380.4809163 26.5864569 342.16740716 26.59572351 C338.08160727 26.59668562 333.99580737 26.59762415 329.91000748 26.5985527 C328.40103136 26.59890855 328.40103136 26.59890855 326.86157088 26.59927159 C311.68588542 26.60268063 296.51021346 26.59869951 281.33452988 26.59111404 C264.07661786 26.58253065 246.81874415 26.58469288 229.5608369 26.60095628 C219.90820316 26.60975317 210.25565245 26.61035746 200.60302091 26.59901775 C194.14905597 26.59227335 187.69515736 26.59650835 181.24120222 26.60953206 C177.56838987 26.61664292 173.89574203 26.61916206 170.22293507 26.60831411 C152.42156318 26.55958338 135.96259009 26.97672048 119.0625 33.125 Z " fill="#FCFDFD" transform="translate(0,0)"/>
<path d="M0 0 C0.69899007 -0.00297112 1.39798014 -0.00594224 2.11815172 -0.0090034 C4.4667651 -0.01769307 6.8153275 -0.01919897 9.16395569 -0.02069092 C10.84621286 -0.02531949 12.52846898 -0.03034421 14.21072388 -0.03573608 C18.79025506 -0.04887215 23.36977156 -0.05530925 27.94931865 -0.05974674 C30.81742661 -0.06268001 33.68553059 -0.06678566 36.55363655 -0.07125092 C45.54621707 -0.08493888 54.53878847 -0.09459499 63.53137869 -0.09845281 C73.8734691 -0.10291464 84.2154261 -0.12036924 94.55747598 -0.1494534 C102.57052432 -0.17119508 110.58353552 -0.18116396 118.59661299 -0.18249393 C123.37149755 -0.18353454 128.14625695 -0.18927992 132.92111015 -0.20731354 C171.11111651 -0.34329662 171.11111651 -0.34329662 187.16810608 3.14044189 C187.87552885 3.29001595 188.58295162 3.43959 189.31181145 3.59369659 C218.59873171 9.82318907 243.69237595 23.46238174 265.16810608 44.14044189 C265.94669983 44.84427002 266.72529358 45.54809814 267.52748108 46.27325439 C288.3263324 65.67076467 302.27539801 96.93007878 304.16810608 125.14044189 C304.32743262 129.87049349 304.3531553 134.59548527 304.35560608 139.32794189 C304.36785217 140.5531958 304.38009827 141.77844971 304.39271545 143.04083252 C304.45489326 182.35793128 287.97149404 214.87146133 260.87904358 242.47247314 C248.01716563 254.73766603 232.37785473 263.18914019 216.16810608 270.14044189 C214.42400452 270.89454346 214.42400452 270.89454346 212.64466858 271.66387939 C192.65460549 279.80797917 172.36510059 281.43366006 151.01966858 281.55450439 C148.90974704 281.57325142 146.79983272 281.59282735 144.68992615 281.6131897 C139.18279815 281.6641439 133.67564595 281.70396424 128.16841125 281.74133301 C122.53022962 281.78160501 116.89214549 281.83259058 111.25404358 281.88262939 C100.2254666 281.97895301 89.1968341 282.06349483 78.16810608 282.14044189 C77.97143845 283.0001358 77.77477081 283.85982971 77.57214355 284.74557495 C76.83064122 287.97869213 76.08578332 291.21099987 75.33874512 294.44284058 C75.01798952 295.83352847 74.69851877 297.22451343 74.38043213 298.61581421 C69.48696365 320.00821007 62.16201539 339.25773502 49.16810608 357.14044189 C48.29992249 358.3450708 48.29992249 358.3450708 47.41419983 359.57403564 C26.40377237 387.20978148 -5.26513016 406.82401276 -38.83189392 415.14044189 C-40.10548767 415.47688721 -41.37908142 415.81333252 -42.69126892 416.15997314 C-61.68737868 421.1371908 -79.90029491 423.30958282 -99.51939392 423.20294189 C-104.90251892 423.18231689 -110.28564392 423.16169189 -115.83189392 423.14044189 C-115.83189392 401.36044189 -115.83189392 379.58044189 -115.83189392 357.14044189 C-109.89189392 356.48044189 -103.95189392 355.82044189 -97.83189392 355.14044189 C-94.13302992 354.32175999 -90.67124498 353.5017602 -87.08189392 352.39044189 C-86.20339783 352.12658691 -85.32490173 351.86273193 -84.41978455 351.59088135 C-59.18537508 343.81489345 -39.45444209 329.33573942 -26.71861267 305.85919189 C-12.94947863 279.40003152 -12.37796396 250.5730127 -12.39164615 221.37375784 C-12.3896665 217.65084411 -12.3692022 213.92803017 -12.35046387 210.20516968 C-12.3100257 201.60521133 -12.29098327 193.00527455 -12.27429199 184.40524292 C-12.25172304 173.39370578 -12.21829894 162.38222684 -12.16709286 151.37078488 C-12.1472872 146.96293502 -12.13759955 142.5552179 -12.1361407 138.14732528 C-12.13404825 136.07279686 -12.12748831 133.99833937 -12.11897278 131.92382812 C-12.10874224 129.40404154 -12.10554182 126.88421212 -12.11087036 124.3644104 C-12.06084141 116.17412492 -11.93956283 109.2481108 -5.83189392 103.14044189 C-0.75144262 99.72455792 2.95705153 98.56056228 9.12294006 98.68634033 C10.2839314 98.68561712 10.2839314 98.68561712 11.46837711 98.6848793 C13.95080115 98.6878429 16.43199339 98.71819818 18.91419983 98.74981689 C20.45590131 98.75570493 21.9976108 98.75978139 23.5393219 98.76202393 C29.22820598 98.78291559 34.91691839 98.83876085 40.60560608 98.89044189 C59.69404358 99.01419189 59.69404358 99.01419189 79.16810608 99.14044189 C79.16810608 135.77044189 79.16810608 172.40044189 79.16810608 210.14044189 C96.24560608 209.95481689 96.24560608 209.95481689 113.66810608 209.76544189 C117.22914124 209.73144287 120.79017639 209.69744385 124.4591217 209.66241455 C127.72274783 209.62239242 127.72274783 209.62239242 130.98634338 209.57998657 C132.41143701 209.56259468 133.83657607 209.5486662 135.26173401 209.53775024 C158.71717802 209.35022329 181.21786746 206.47072749 198.95716858 189.44903564 C212.44536026 175.36507578 218.92534849 157.7933744 218.5660553 138.37823486 C217.82164194 120.74418061 212.15956096 105.14051897 199.73841858 92.47247314 C190.63628159 84.21415129 179.98341804 78.46951188 168.16810608 75.14044189 C167.10879883 74.80249603 166.04949158 74.46455017 164.95808411 74.11636353 C158.45977465 72.51377827 151.77999393 72.84466698 145.13002014 72.84991455 C143.61138074 72.84392247 142.09274437 72.83711537 140.57411194 72.82955933 C136.46645649 72.81196011 132.35888447 72.80720649 128.25119495 72.80592775 C125.67944037 72.80450202 123.10770671 72.80022441 120.53595734 72.79493332 C111.5484178 72.77645235 102.56093742 72.76826018 93.57337952 72.76983643 C85.22092383 72.77103693 76.86872692 72.7499475 68.51633668 72.7183491 C61.32452765 72.69211957 54.13280278 72.68147194 46.94094634 72.68274724 C42.65484106 72.68325497 38.36896589 72.67767765 34.08290863 72.65639114 C30.04768777 72.63689599 26.01291387 72.63696041 21.97767639 72.65142441 C20.50560089 72.6534998 19.03349657 72.64888827 17.56147003 72.63670349 C1.2615002 72.51063184 -12.34999507 77.23405847 -24.36314392 88.46466064 C-34.72613237 99.69669717 -41.97257939 112.65587542 -48.80455017 126.22247314 C-51.77211928 132.0987042 -54.98952192 137.80914148 -58.26939392 143.51544189 C-63.42605986 152.52555066 -68.28258531 161.6612287 -73.03575134 170.88970947 C-76.46690584 177.54261978 -79.97568756 184.14336103 -83.58189392 190.70294189 C-88.53846949 199.72299385 -93.38791024 208.79644104 -98.20689392 217.89044189 C-103.98767059 228.79706275 -109.79960119 239.68566416 -115.66123962 250.5491333 C-119.60157353 257.85231408 -123.52525804 265.16424156 -127.43980408 272.48126221 C-133.46867403 283.74954396 -139.52888053 295.00028294 -145.62876892 306.23028564 C-147.86040656 310.34065399 -150.07695672 314.45876903 -152.28501892 318.58184814 C-152.85784607 319.6482251 -153.43067322 320.71460205 -154.02085876 321.81329346 C-155.10266222 323.82777252 -156.18138843 325.84390889 -157.25621033 327.86212158 C-170.86117818 353.14803329 -170.86117818 353.14803329 -183.47715759 357.33868408 C-192.09293886 359.83558332 -200.49677208 359.64379014 -209.38267517 359.53106689 C-211.13528796 359.52358817 -212.88790923 359.51790297 -214.64053345 359.51391602 C-219.20924273 359.49878786 -223.77742725 359.45962001 -228.34593201 359.4151001 C-233.02542527 359.37386749 -237.70500497 359.35584579 -242.3846283 359.33575439 C-251.5339449 359.29311052 -260.68287544 359.22501874 -269.83189392 359.14044189 C-267.59153493 353.98869744 -265.28515405 348.92854708 -262.61705017 343.98028564 C-262.02037537 342.87008057 -261.42370056 341.75987549 -260.8089447 340.61602783 C-260.17082367 339.436632 -259.53263841 338.25727092 -258.89439392 337.07794189 C-258.22208555 335.82971521 -257.55005249 334.58134022 -256.87828064 333.33282471 C-252.23449821 324.70883541 -247.5586102 316.10220355 -242.88438416 307.49468994 C-237.62603844 297.79437358 -232.45659227 288.04740298 -227.28746033 278.29937744 C-222.80628987 269.84985342 -218.30697277 261.41041971 -213.78544617 252.98242188 C-212.84479346 251.22701448 -211.90692742 249.47011474 -210.96910095 247.7131958 C-208.30715151 242.72919735 -205.63113923 237.7578616 -202.86314392 232.83184814 C-202.42872986 232.04737305 -201.9943158 231.26289795 -201.54673767 230.45465088 C-200.77126542 229.05721123 -199.9833781 227.66654109 -199.17955017 226.28521729 C-196.8488962 222.0495711 -196.70699385 219.77816876 -197.83189392 215.14044189 C-199.04574008 212.40140308 -199.04574008 212.40140308 -200.64048767 209.71856689 C-201.21726257 208.70286621 -201.79403748 207.68716553 -202.38829041 206.64068604 C-203.31943665 205.03181519 -203.31943665 205.03181519 -204.26939392 203.39044189 C-205.56138853 201.1237017 -206.85305382 198.85677377 -208.14439392 196.58966064 C-208.77861267 195.48283936 -209.41283142 194.37601807 -210.06626892 193.23565674 C-212.34162271 189.2468659 -214.55782373 185.22729005 -216.76939392 181.20294189 C-221.40608142 172.81435711 -226.21587713 164.52744777 -231.0186615 156.23321533 C-237.16326684 145.60445879 -243.15401029 134.89266081 -249.13658142 124.17218018 C-255.96730598 111.95675137 -262.88105579 99.78784814 -269.83189392 87.64044189 C-285.3998022 60.42339084 -285.3998022 60.42339084 -292.78892517 46.94122314 C-293.1259848 46.32647629 -293.46304443 45.71172943 -293.81031799 45.07835388 C-294.14904938 44.46051529 -294.48778076 43.8426767 -294.83677673 43.20611572 C-295.17664612 42.58620758 -295.5165155 41.96629944 -295.86668396 41.3276062 C-296.54894818 40.08307572 -297.23099756 38.83842743 -297.91282654 37.59365845 C-302.85502172 28.58170953 -307.97043746 19.69452286 -313.37901306 10.95220947 C-313.83783875 10.20608398 -314.29666443 9.4599585 -314.76939392 8.69122314 C-315.17029236 8.04838379 -315.5711908 7.40554443 -315.98423767 6.7432251 C-316.83189392 5.14044189 -316.83189392 5.14044189 -316.83189392 3.14044189 C-306.94782285 3.07073967 -297.06381087 3.01752827 -287.1795435 2.98500538 C-282.58920636 2.96939109 -277.99903815 2.94823077 -273.40879822 2.91412354 C-268.97378327 2.88137825 -264.5389302 2.86355705 -260.10380363 2.85581017 C-258.41702669 2.85029377 -256.73025798 2.83952192 -255.04355049 2.82325172 C-242.22076102 2.70455073 -232.45363865 3.47141525 -222.33189392 12.32794189 C-216.01301223 19.4366838 -211.52085056 27.9773312 -206.83189392 36.20294189 C-205.4977991 38.53007732 -204.16317291 40.85690136 -202.82798767 43.18341064 C-202.49222214 43.76918884 -202.1564566 44.35496704 -201.81051636 44.95849609 C-198.53824672 50.66360666 -195.21822083 56.34027812 -191.89439392 62.01544189 C-186.1624232 71.81673008 -180.51355968 81.66428582 -174.89195251 91.52911377 C-171.47478148 97.52401921 -168.04628076 103.51190068 -164.58970642 109.48419189 C-164.24554184 110.07910431 -163.90137726 110.67401672 -163.54678345 111.28695679 C-161.90537121 114.12347272 -160.26182225 116.95872014 -158.61534119 119.79229736 C-153.78908095 128.12536071 -153.78908095 128.12536071 -152.03892517 131.80450439 C-151.05277437 134.27555031 -151.05277437 134.27555031 -148.83189392 135.14044189 C-148.61662048 134.37473877 -148.40134705 133.60903564 -148.17955017 132.82012939 C-146.31466001 127.72816842 -143.80168489 123.05370977 -141.26939392 118.26544189 C-140.73145203 117.2418457 -140.19351013 116.21824951 -139.63926697 115.16363525 C-135.52665405 107.37282744 -131.27691419 99.672163 -126.89976501 92.02764893 C-125.80055206 90.08505264 -124.72941106 88.12906362 -123.66392517 86.16778564 C-115.3219994 70.88043702 -105.63886169 56.95975332 -93.83189392 44.14044189 C-93.3136908 43.57696045 -92.79548767 43.013479 -92.26158142 42.43292236 C-77.25663033 26.3238508 -58.74515489 14.17229801 -37.83189392 7.14044189 C-36.78646423 6.77177002 -35.74103455 6.40309814 -34.66392517 6.02325439 C-27.44643058 3.6144925 -20.47672357 2.37224727 -12.94908142 1.53497314 C-0.8369553 0.00198475 -0.8369553 0.00198475 0 0 Z " fill="#FCFDFD" transform="translate(523.8318939208984,174.85955810546875)"/>
<path d="M0 0 C9.9 0 19.8 0 30 0 C32.041875 3.96 32.041875 3.96 34.125 8 C38.33265246 16.06083249 42.79060149 23.96040868 47.375 31.8125 C47.96941895 32.83150391 48.56383789 33.85050781 49.17626953 34.90039062 C51.99241602 39.69430712 54.8441857 44.42173738 58 49 C61.30030547 45.90936788 63.19378353 42.25843745 65.3125 38.3125 C70.15574696 29.43136251 75.2257111 20.69375041 80.3527832 11.97387695 C80.92730225 10.99507568 81.50182129 10.01627441 82.09375 9.0078125 C82.86235352 7.70287842 82.86235352 7.70287842 83.64648438 6.37158203 C84.8361443 4.28710214 85.92665502 2.14668995 87 0 C96.57 0 106.14 0 116 0 C116 30.69 116 61.38 116 93 C108.74 93 101.48 93 94 93 C93.67 72.54 93.34 52.08 93 31 C82.20827826 49.44243325 82.20827826 49.44243325 71.625 68 C71.068125 68.98871094 70.51125 69.97742188 69.9375 70.99609375 C68.62336487 73.32981648 67.31080585 75.66440627 66 78 C63.61877077 78.24539385 61.26284078 78.42164422 58.875 78.5625 C57.87726563 78.67561523 57.87726563 78.67561523 56.859375 78.79101562 C54.8671875 78.87890625 54.8671875 78.87890625 51 78 C48.41037008 75.33728994 46.76510667 72.24799807 45 69 C44.49243164 68.12915771 43.98486328 67.25831543 43.46191406 66.36108398 C41.83884857 63.57002514 40.25936891 60.75767407 38.6875 57.9375 C38.16994141 57.01517578 37.65238281 56.09285156 37.11914062 55.14257812 C35.41024304 52.09646299 33.70523001 49.04816978 32 46 C29.03 40.72 26.06 35.44 23 30 C22.67 50.79 22.34 71.58 22 93 C14.74 93 7.48 93 0 93 C0 62.31 0 31.62 0 0 Z " fill="#F9FCFC" transform="translate(390,646)"/>
<path d="M0 0 C25 0 25 0 31.375 5.625 C32.8203125 7.5480957 32.8203125 7.5480957 33.75 9.23828125 C35.98383336 13.05015271 38.5955723 16.38705908 41.375 19.8125 C42.29115872 20.98404083 43.20518943 22.15724861 44.1171875 23.33203125 C47.19217701 27.26449019 50.34272082 31.13350727 53.5 35 C58.62636161 41.28137283 63.66920011 47.62236778 68.66015625 54.01171875 C70.18086765 55.95386269 71.72920397 57.87479799 73.30859375 59.76953125 C75 62 75 62 75 64 C75.66 64 76.32 64 77 64 C77 42.88 77 21.76 77 0 C84.26 0 91.52 0 99 0 C99 30.69 99 61.38 99 93 C73 93 73 93 67.25 87.5625 C66.00927734 85.68261719 66.00927734 85.68261719 65.2109375 83.984375 C62.72211139 79.23536135 59.34138069 75.37502421 55.875 71.3125 C54.66815395 69.86007948 53.46365448 68.40570536 52.26171875 66.94921875 C51.41552979 65.92707275 51.41552979 65.92707275 50.55224609 64.88427734 C47.94882392 61.72397342 45.40005424 58.52099906 42.8515625 55.31640625 C40.11843504 51.89711388 37.34244399 48.51339061 34.56640625 45.12890625 C30.70645777 40.42294166 26.85419259 35.71067983 23 31 C22.67 51.46 22.34 71.92 22 93 C14.74 93 7.48 93 0 93 C0 62.31 0 31.62 0 0 Z " fill="#FAFCFC" transform="translate(623,646)"/>
<path d="M0 0 C25.08 0 50.16 0 76 0 C76 5.61 76 11.22 76 17 C58.18 17 40.36 17 22 17 C22 23.93 22 30.86 22 38 C38.5 38 55 38 72 38 C72 43.28 72 48.56 72 54 C55.83 54 39.66 54 23 54 C23 61.26 23 68.52 23 76 C40.82 76 58.64 76 77 76 C77 81.61 77 87.22 77 93 C51.59 93 26.18 93 0 93 C0 62.31 0 31.62 0 0 Z " fill="#F9FBFC" transform="translate(528,646)"/>
<path d="M0 0 C25.08 0 50.16 0 76 0 C76 5.61 76 11.22 76 17 C58.18 17 40.36 17 22 17 C22 23.93 22 30.86 22 38 C38.5 38 55 38 72 38 C72 43.28 72 48.56 72 54 C55.5 54 39 54 22 54 C22 61.26 22 68.52 22 76 C39.82 76 57.64 76 76 76 C76 81.61 76 87.22 76 93 C50.92 93 25.84 93 0 93 C0 62.31 0 31.62 0 0 Z " fill="#FAFCFC" transform="translate(296,646)"/>
<path d="M0 0 C22.77044925 -2.19573051 22.77044925 -2.19573051 29.18115234 1.13232422 C32.62580916 4.13095373 34.7315203 7.90921508 36.83447266 11.91552734 C38.9247501 15.65385764 41.60106681 18.9708699 44.1875 22.375 C45.12201084 23.65107455 46.05334033 24.92948923 46.98046875 26.2109375 C47.64691406 27.13132812 48.31335938 28.05171875 49 29 C53.34653973 24.89673675 56.90728206 20.39306186 60.5 15.625 C61.05558594 14.89539063 61.61117187 14.16578125 62.18359375 13.4140625 C62.73144531 12.6921875 63.27929688 11.9703125 63.84375 11.2265625 C64.39200439 10.52120361 64.94025879 9.81584473 65.50512695 9.08911133 C67.03708288 7.07061368 67.03708288 7.07061368 68.01635742 4.91674805 C69.16125209 2.69856729 69.96535526 1.46869121 72 0 C76.79452306 -0.86579651 81.46116105 -0.65746604 86.3125 -0.4375 C88.28186523 -0.39012695 88.28186523 -0.39012695 90.29101562 -0.34179688 C93.52961009 -0.25935992 96.7636694 -0.14432328 100 0 C96.72747796 4.40434608 93.43606054 8.77112364 89.9375 13 C88.7928125 14.39025391 88.7928125 14.39025391 87.625 15.80859375 C87.20992187 16.31245605 86.79484375 16.81631836 86.3671875 17.33544922 C83.71204424 20.56808614 81.07531714 23.8157222 78.4375 27.0625 C77.88288086 27.74505859 77.32826172 28.42761719 76.75683594 29.13085938 C72.47890868 34.400292 68.22893001 39.69114705 64 45 C67.88415723 51.059919 72.04770413 56.6891336 76.6875 62.1875 C77.92180745 63.66824263 79.15486323 65.15002944 80.38671875 66.6328125 C80.99435059 67.3640332 81.60198242 68.09525391 82.22802734 68.84863281 C84.86515586 72.05039315 87.44133303 75.29786967 90 78.5625 C90.41983154 79.09705811 90.83966309 79.63161621 91.2722168 80.18237305 C94.57497478 84.40982445 97.79221591 88.70021897 101 93 C77.06431637 95.20504881 77.06431637 95.20504881 70.85351562 91.83544922 C67.61064567 88.78104865 65.80776023 84.98580965 63.98632812 80.97216797 C62.30618235 77.61270818 59.96566332 74.794278 57.625 71.875 C56.83351563 70.84117187 56.04203125 69.80734375 55.2265625 68.7421875 C53.26639817 66.32809038 51.24727947 64.14466397 49 62 C47.62680374 63.77627699 46.25633726 65.55451263 44.89013672 67.33618164 C43.70163334 68.8772908 42.50248313 70.41024089 41.29345703 71.93530273 C38.43758363 75.58186435 35.84591587 79.04997224 33.859375 83.24609375 C30.06780668 90.81791227 30.06780668 90.81791227 26 93 C17.13182754 94.70161589 7.93103566 93.85531914 -1 93 C0.95374559 89.69756387 2.95265499 86.66518612 5.375 83.6875 C6.07753906 82.81996094 6.78007813 81.95242188 7.50390625 81.05859375 C8.73947266 79.54458984 8.73947266 79.54458984 10 78 C19.67577377 66.1347037 19.67577377 66.1347037 29.25 54.1875 C29.71575439 53.60709961 30.18150879 53.02669922 30.66137695 52.42871094 C32.61775742 49.95134387 33.9925703 48.02228911 35 45 C33.45267505 42.69418243 31.89160778 40.62758292 30.125 38.5 C29.36388916 37.55906494 29.36388916 37.55906494 28.58740234 36.59912109 C27.0677768 34.72474142 25.53517266 32.86165272 24 31 C23.2471875 30.07445312 22.494375 29.14890625 21.71875 28.1953125 C18.94174736 24.7862309 16.15023798 21.38931903 13.34619141 18.00244141 C11.53892208 15.8176951 9.73800121 13.62782556 7.9375 11.4375 C7.05989014 10.38199951 7.05989014 10.38199951 6.16455078 9.30517578 C5.62427246 8.64630371 5.08399414 7.98743164 4.52734375 7.30859375 C3.79632446 6.42385376 3.79632446 6.42385376 3.05053711 5.52124023 C2 4 2 4 2 2 C1.34 2 0.68 2 0 2 C0 1.34 0 0.68 0 0 Z " fill="#F9FBFC" transform="translate(735,646)"/>
<path d="M0 0 C5.75425211 5.36330505 9.6466297 12.14282137 10.23828125 20.0625 C10.52796038 28.97750231 10.27856259 35.85745015 4.96484375 43.40234375 C4.38863281 44.27246094 4.38863281 44.27246094 3.80078125 45.16015625 C-1.79855928 52.74021588 -11.09590444 56.48312436 -20.03515625 58.40234375 C-32.91383805 59.68891237 -45.41376988 57.90268646 -56.1015625 50.09765625 C-62.68913 44.32189 -66.66508138 37.37779477 -67.31640625 28.62109375 C-67.67113767 18.22782895 -66.75704242 11.40613633 -60.03515625 3.27734375 C-44.34632987 -13.27742434 -17.85329494 -14.01535054 0 0 Z " fill="#F7FAFB" transform="translate(539.03515625,782.59765625)"/>
<path d="M0 0 C7.70431498 -2.3346409 16.39063847 -4.0427541 24.14031982 -1.08776855 C34.92256439 5.2190076 41.84224198 21.61637881 47.62586975 32.20687866 C48.2519236 33.34777451 48.2519236 33.34777451 48.890625 34.51171875 C49.43251465 35.52431763 49.43251465 35.52431763 49.98535156 36.55737305 C50.32018555 37.03343994 50.65501953 37.50950684 51 38 C51.66 38 52.32 38 53 38 C54.09841302 36.50025224 54.09841302 36.50025224 55.109375 34.51171875 C55.52674423 33.75112152 55.94411346 32.99052429 56.37413025 32.20687866 C56.82816727 31.3754837 57.28220428 30.54408875 57.75 29.6875 C74.03925438 1.13158387 74.03925438 1.13158387 81.72705078 -1.79980469 C89.33258179 -3.2815185 96.63393056 -2.23214225 104 0 C102.71430247 2.69652197 101.30527497 5.11955892 99.56640625 7.546875 C99.08816406 8.21847656 98.60992187 8.89007812 98.1171875 9.58203125 C97.34761719 10.65517578 97.34761719 10.65517578 96.5625 11.75 C92.4925754 17.46750853 88.46046348 23.20610944 84.5 29 C80.54285346 34.78057305 76.53964715 40.5267575 72.5 46.25 C71.99533203 46.96542969 71.49066406 47.68085937 70.97070312 48.41796875 C67.08939062 53.9055232 67.08939062 53.9055232 65.3737793 55.71875 C63.3785076 59.0320286 63.52054238 62.28587258 63.48828125 66.046875 C63.47033005 66.81807678 63.45237885 67.58927856 63.43388367 68.3838501 C63.37984231 70.83917832 63.3459058 73.29431286 63.3125 75.75 C63.27932136 77.41799566 63.24483118 79.08596579 63.20898438 80.75390625 C63.12165676 84.83596438 63.0615399 88.91714611 63 93 C55.74 93 48.48 93 41 93 C41.020625 90.58945312 41.04125 88.17890625 41.0625 85.6953125 C41.0552573 83.32858344 41.03436473 80.96233419 41.01220703 78.59570312 C41.00415751 76.9664795 41.01002757 75.33711938 41.03076172 73.70800781 C41.14385893 64.0054576 41.05293074 57.29148944 33.97851562 49.93359375 C33.32560547 49.29550781 32.67269531 48.65742187 32 48 C30.71492981 46.16996486 29.45704362 44.31991327 28.25 42.4375 C24.99682799 37.46543084 21.62732487 32.59470791 18.1875 27.75 C14.0374636 21.89225509 9.90122977 16.02575741 5.8125 10.125 C5.34287842 9.45307617 4.87325684 8.78115234 4.3894043 8.08886719 C2.53994292 5.41017018 1.03515622 3.10546865 0 0 Z " fill="#FAFCFC" transform="translate(182,646)"/>
<path d="M0 0 C5.61925232 -0.09982274 11.23797418 -0.1719136 16.85791016 -0.21972656 C18.76457729 -0.23968492 20.67118448 -0.2668616 22.57763672 -0.30175781 C36.3895549 -0.5480112 48.8434158 -0.75592048 59.4765625 9.31640625 C63.87944121 14.1821517 63.6394476 18.92035111 63.4296875 25.1875 C62.80281017 30.74961158 61.13477462 34.23221721 57 38 C50.297544 42.42554511 44.03219051 44.13862662 36.04296875 44.09765625 C34.93115234 44.09443359 33.81933594 44.09121094 32.67382812 44.08789062 C31.52333984 44.07951172 30.37285156 44.07113281 29.1875 44.0625 C28.01767578 44.05798828 26.84785156 44.05347656 25.64257812 44.04882812 C22.76169677 44.03706943 19.88084181 44.01913474 17 44 C17 51.26 17 58.52 17 66 C14.380625 66.020625 11.76125 66.04125 9.0625 66.0625 C8.2362915 66.071604 7.41008301 66.08070801 6.55883789 66.09008789 C4.70566241 66.09723945 2.85250692 66.0502852 1 66 C0 65 0 65 -0.12025452 62.41209412 C-0.11803391 61.25959671 -0.11581329 60.1070993 -0.11352539 58.91967773 C-0.11344986 57.61840439 -0.11337433 56.31713104 -0.11329651 54.97642517 C-0.10818909 53.54548098 -0.10297308 52.11453718 -0.09765625 50.68359375 C-0.09579203 49.2277074 -0.09436815 47.77182043 -0.09336853 46.31593323 C-0.08954365 42.47720621 -0.07971364 38.63851681 -0.06866455 34.79980469 C-0.05844978 30.88542184 -0.05387077 26.97103294 -0.04882812 23.05664062 C-0.03809134 15.37107657 -0.02101529 7.68554355 0 0 Z " fill="#F5F9FA" transform="translate(394,774)"/>
<path d="M0 0 C-1.61668359 3.40736003 -3.61439796 6.07571362 -6 9 C-6.33 9.66 -6.66 10.32 -7 11 C-9.75254898 9.9475548 -12.33196973 8.82342035 -14.9375 7.4375 C-19.98524155 5.06815193 -25.03774306 4.82827283 -30.5625 4.75 C-32.20412109 4.71132813 -32.20412109 4.71132813 -33.87890625 4.671875 C-37.38471334 5.04044546 -39.25007568 5.81325206 -42 8 C-42.41746608 11.12635209 -42.41746608 11.12635209 -42 14 C-37.01937799 16.83117483 -32.36397938 17.90967255 -26.8125 18.9375 C-5.06347935 23.30519942 -5.06347935 23.30519942 1 32 C2.67840446 37.12459585 2.65990388 42.07639895 0.5625 47.0625 C-2.73322461 52.96733992 -7.79454607 55.92611215 -14.08984375 58.03515625 C-21.11746621 59.83175415 -27.77453713 60.54417712 -35 60 C-36.01707031 59.93039062 -37.03414062 59.86078125 -38.08203125 59.7890625 C-47.1491728 58.80231191 -54.16611336 55.3926141 -62 51 C-60.32603695 46.408335 -58.20616974 43.62803418 -55 40 C-52.40151254 41.00556296 -49.88031643 42.05886077 -47.37890625 43.2890625 C-39.05087959 47.2393886 -30.6694779 48.80812144 -21.59375 46.34765625 C-19.51012942 45.48944368 -17.61190203 44.61190203 -16 43 C-15.41511438 40.62875402 -15.41511438 40.62875402 -16 38 C-21.94956554 32.76113341 -29.39321778 32.31954464 -36.97070312 31.02148438 C-44.934148 29.53677431 -52.13153467 27.13818551 -58.0625 21.375 C-60.82777013 16.55807784 -60.86703165 12.4290767 -60 7 C-56.50013517 -0.26895003 -50.43293822 -4.29711338 -43 -7 C-28.05801363 -10.76843748 -13.23160067 -7.26440821 0 0 Z " fill="#F5F9FB" transform="translate(626,781)"/>
<path d="M0 0 C6.32681847 3.48543293 10.68060254 7.94076891 12.7734375 14.953125 C14.24617883 22.28795436 12.85767787 28.49273357 9.171875 34.9375 C4.95841403 39.78996927 0.34564801 42.57727487 -6.09765625 43.30859375 C-13.69553824 43.45100168 -19.11425523 43.23631869 -24.828125 37.9375 C-29.81499579 32.92498977 -32.11901377 28.78648817 -32.203125 21.6875 C-32.08653287 15.90323495 -31.55003441 11.48880426 -27.828125 6.9375 C-20.02301695 -0.34618121 -10.45729364 -3.928707 0 0 Z " fill="#2A73B3" transform="translate(519.828125,786.0625)"/>
<path d="M0 0 C3.34125 -0.061875 6.6825 -0.12375 10.125 -0.1875 C11.68758545 -0.22846802 11.68758545 -0.22846802 13.28173828 -0.27026367 C19.61519913 -0.32691032 23.93884367 0.43257856 28.9375 4.625 C30.65529543 8.46477803 30.33035656 12.04527886 29 16 C24.71362945 19.72727874 20.93424546 21.13333914 15.33203125 21.09765625 C14.52741455 21.09515869 13.72279785 21.09266113 12.89379883 21.09008789 C11.36855591 21.07643188 11.36855591 21.07643188 9.8125 21.0625 C4.9553125 21.0315625 4.9553125 21.0315625 0 21 C0 14.07 0 7.14 0 0 Z " fill="#2873B4" transform="translate(411,786)"/>
<path d="M0 0 C0 2.31 0 4.62 0 7 C-6.43318795 6.8799809 -12.86627438 6.75528386 -19.29931641 6.62768555 C-21.47703107 6.58500093 -23.65476522 6.54329674 -25.83251953 6.50268555 C-37.82787785 6.27829201 -49.80452655 5.95573786 -61.78778076 5.36782837 C-72.47857037 4.85640378 -83.17487345 4.6516074 -93.875 4.4375 C-95.94271348 4.3941248 -98.01042186 4.35050594 -100.078125 4.30664062 C-105.05202945 4.20163626 -110.02598983 4.09986554 -115 4 C-111.29233938 1.52822625 -108.36863804 1.65417068 -104.06982422 1.58935547 C-102.85656212 1.55965668 -102.85656212 1.55965668 -101.61878967 1.52935791 C-98.93087534 1.46597682 -96.24289462 1.41646168 -93.5546875 1.3671875 C-91.66828762 1.32596855 -89.78190454 1.28397374 -87.89553833 1.24124146 C-83.92264449 1.15319193 -79.94968951 1.07142978 -75.9765625 0.99462891 C-70.95939247 0.8976071 -65.94252166 0.79022367 -60.92565536 0.67869186 C-40.6160915 0.22822757 -20.31558904 -0.16060762 0 0 Z " fill="#E3F0F7" transform="translate(364,803)"/>
<path d="M0 0 C9.24344106 0.10941672 18.48683136 0.22235765 27.73017979 0.33933926 C32.02607553 0.39360611 36.32197795 0.44682796 40.61791992 0.49731445 C57.34208743 0.6947462 74.06808449 0.90062677 90.78758049 1.35585213 C92.79439967 1.40895377 94.80144776 1.45316856 96.80848694 1.49717712 C98.5911924 1.55090233 98.5911924 1.55090233 100.40991211 1.60571289 C101.96578285 1.64747398 101.96578285 1.64747398 103.55308533 1.69007874 C106 2 106 2 108 4 C95.98579833 4.39382867 83.9715187 4.78518054 71.95713615 5.17345428 C66.37714604 5.35386123 60.79718527 5.53509044 55.21728516 5.71826172 C49.82271672 5.89531779 44.42807969 6.07013177 39.03339005 6.24345398 C36.98511333 6.30964396 34.93686164 6.37661367 32.88863754 6.44441223 C21.92110213 6.80692138 10.97492765 7.11049615 0 7 C0 4.69 0 2.38 0 0 Z " fill="#E7F2F8" transform="translate(659,803)"/>
<path d="M0 0 C6.93 0 13.86 0 21 0 C21 0.66 21 1.32 21 2 C14.73 2 8.46 2 2 2 C2 7.61 2 13.22 2 19 C7.94 19.33 13.88 19.66 20 20 C20 20.33 20 20.66 20 21 C13.4 21 6.8 21 0 21 C0 14.07 0 7.14 0 0 Z " fill="#3F7FB7" transform="translate(411,786)"/>
<path d="M0 0 C5.28 0 10.56 0 16 0 C16 0.66 16 1.32 16 2 C13.21945349 2.78670772 10.76039307 3.12265947 7.87402344 3.11352539 C7.07349548 3.11344986 6.27296753 3.11337433 5.44818115 3.11329651 C4.16672211 3.10555458 4.16672211 3.10555458 2.859375 3.09765625 C1.97719299 3.0962413 1.09501099 3.09482635 0.18609619 3.09336853 C-2.62597065 3.08778001 -5.4379573 3.07522961 -8.25 3.0625 C-10.15885302 3.05748352 -12.06770728 3.05292087 -13.9765625 3.04882812 C-18.65107247 3.03781434 -23.32552265 3.02055758 -28 3 C-28 2.67 -28 2.34 -28 2 C-18.76 1.67 -9.52 1.34 0 1 C0 0.67 0 0.34 0 0 Z " fill="#4B8ABE" transform="translate(765,805)"/>
<path d="M0 0 C0.99 0.33 1.98 0.66 3 1 C2.0479279 2.00596297 1.08812654 3.00461563 0.125 4 C-0.40867187 4.556875 -0.94234375 5.11375 -1.4921875 5.6875 C-3 7 -3 7 -5 7 C-5.226875 7.556875 -5.45375 8.11375 -5.6875 8.6875 C-7.37550036 11.66159588 -9.46676517 13.72008865 -12 16 C-12.66 16 -13.32 16 -14 16 C-12.34136495 11.67495164 -9.128959 8.90581175 -5.875 5.75 C-5.31167969 5.19570312 -4.74835938 4.64140625 -4.16796875 4.0703125 C-2.78313972 2.70895515 -1.39216796 1.35385141 0 0 Z " fill="#3C7DB5" transform="translate(74,59)"/>
<path d="M0 0 C0 3 0 3 -2.1171875 5.375 C-3.02726562 6.24125 -3.93734375 7.1075 -4.875 8 C-7.60434544 10.61270674 -9.90126177 12.85189265 -12 16 C-12.66 15.67 -13.32 15.34 -14 15 C-12.61087093 13.2446735 -11.21338227 11.49596093 -9.8125 9.75 C-9.03519531 8.77546875 -8.25789063 7.8009375 -7.45703125 6.796875 C-5.144288 4.16424517 -2.80196947 2.09027918 0 0 Z " fill="#3B7DB4" transform="translate(504,259)"/>
<path d="M0 0 C1.485 0.99 1.485 0.99 3 2 C3.29296875 4.1640625 3.29296875 4.1640625 3.1875 6.625 C3.16042969 7.44226563 3.13335938 8.25953125 3.10546875 9.1015625 C3.07066406 9.72804688 3.03585937 10.35453125 3 11 C2.01 11.495 2.01 11.495 1 12 C-0.3271261 8.0186217 -0.06915913 4.14954773 0 0 Z " fill="#3A7DBA" transform="translate(827,329)"/>
<path d="M0 0 C0.66 0.33 1.32 0.66 2 1 C-0.64 3.64 -3.28 6.28 -6 9 C-6 6 -6 6 -3.5625 3.375 C-2.716875 2.59125 -1.87125 1.8075 -1 1 C-0.67 0.67 -0.34 0.34 0 0 Z " fill="#DAEDF6" transform="translate(521,276)"/>
</svg>
